<?xml version="1.0" encoding="utf-8"?>
<!-- Generator: Adobe Illustrator 18.1.0, SVG Export Plug-In . SVG Version: 6.00 Build 0)  -->
<svg version="1.1" id="Layer_1" xmlns="http://www.w3.org/2000/svg" xmlns:xlink="http://www.w3.org/1999/xlink" x="0px" y="0px"
	 viewBox="0 0 69.4 99.1" enable-background="new 0 0 69.4 99.1" xml:space="preserve">
<path id="XMLID_10_" fill="#B25569" d="M65.4,7.2H53.1c-1.2-1.7-3.2-2.9-5.5-2.9c-1-2.5-3.3-4.2-6.2-4.2H28c-2.8,0-5.2,1.8-6.2,4.2
	c-2.3,0-4.3,1.2-5.5,2.9H4c-2.2,0-4,1.8-4,4v83.9c0,2.2,1.8,4,4,4h61.3c2.2,0,4-1.8,4-4V11.2C69.4,9,67.6,7.2,65.4,7.2L65.4,7.2z
	 M61.3,91H8.1V15.2h8.3c1.3,1.8,3.3,2.9,5.7,2.9h25.4c2.3,0,4.4-1.2,5.7-2.9h8.3L61.3,91L61.3,91z M52.8,38.7c1.3-0.4,2.9,0,3.9,1
	c1.6,1.6,1.6,4.1,0,5.7L39.9,62.2c-0.8,0.8-1.8,1.2-2.9,1.2c-1,0-2.1-0.4-2.9-1.2L23.8,51.8c-1.6-1.6-1.6-4.1,0-5.7
	c1.6-1.6,4.1-1.6,5.7,0l7.5,7.5l11.3-11.3v-2.1H20.7v26h27.6v-9.6l4.4-4.4v16.2c0,1.2-1,2.2-2.2,2.2h-32c-1.2,0-2.2-1-2.2-2.2V38
	c0-1.2,1-2.2,2.2-2.2h32c1.2,0,2.2,1,2.2,2.2V38.7z M52.8,38.7"/>
<rect id="XMLID_3_" y="0.2" fill="none" width="72.2" height="99"/>
</svg>
