<?xml version="1.0" encoding="utf-8"?>
<!-- Generator: Adobe Illustrator 18.1.0, SVG Export Plug-In . SVG Version: 6.00 Build 0)  -->
<svg version="1.1" id="Layer_1" xmlns="http://www.w3.org/2000/svg" xmlns:xlink="http://www.w3.org/1999/xlink" x="0px" y="0px"
	 viewBox="0 0 125.3 124.3" enable-background="new 0 0 125.3 124.3" xml:space="preserve">
<path id="XMLID_16_" fill="#A32E46" stroke="#A32E46" stroke-width="3" stroke-miterlimit="10" d="M125.3,35.6
	c0-10.2-8.9-18.5-19.9-18.5c-1.3-9-9.7-16-19.8-16c-3.7,0-7.3,1-10.4,2.7C71.7,1.4,67.4,0,63,0c-7.5,0-14.4,4-17.7,10
	c-1.7-0.4-3.5-0.6-5.3-0.6c-11,0-19.9,8.3-19.9,18.5c0,0.7,0,1.5,0.1,2.2c-4.3,3.5-6.8,8.5-6.8,13.8c0,7.6,4.9,14.3,12.4,17.1
	c1.8,8.7,9.9,15,19.6,15c3.3,0,6.4-0.7,9.3-2.1c3.5,2.5,7.7,3.8,12.1,3.8c6,0,11.5-2.5,15.3-6.6c2.6,1.1,5.3,1.6,8.2,1.6
	c11,0,19.9-8.3,19.9-18.5c0-0.2,0-0.5,0-0.7C119,51.4,125.3,44.1,125.3,35.6L125.3,35.6z M107.3,49l-2.6,0.3l0.5,2.6
	c0.2,0.8,0.2,1.6,0.2,2.3c0,7.5-6.7,13.5-15,13.5c-2.7,0-5.3-0.7-7.7-1.9l-1.9-1l-1.3,1.8c-2.8,3.9-7.5,6.2-12.6,6.2
	c-3.8,0-7.5-1.3-10.3-3.7l-1.3-1.2l-1.5,0.9c-2.5,1.5-5.3,2.3-8.3,2.3c-7.8,0-14.2-5.3-14.9-12.2l-0.2-1.7l-1.6-0.5
	c-6.2-1.8-10.4-7-10.4-12.9c0-4.2,2.2-8.1,5.9-10.7l1.4-1l-0.4-1.6c-0.2-0.9-0.3-1.8-0.3-2.7c0-7.5,6.7-13.5,15-13.5
	c2,0,3.9,0.3,5.7,1l2.3,0.8l0.9-2.2C51,8.6,56.7,5,63,5c3.9,0,7.6,1.4,10.4,3.8l1.4,1.3l1.6-1.1c2.6-1.8,5.8-2.8,9.2-2.8
	c8.3,0,15,6.1,15,13.4l0,3.1l2.8-0.3c0.6-0.1,1.3-0.1,2-0.1c8.3,0,15,6.1,15,13.5C120.3,42.4,114.7,48.2,107.3,49L107.3,49z
	 M107.3,49"/>
<path id="XMLID_15_" fill="#A32E46" d="M31,80.7c-8,0-14.6,5.5-14.6,12.2c0,6.7,6.5,12.2,14.6,12.2c8.1,0,14.6-5.5,14.6-12.2
	C45.6,86.2,39.1,80.7,31,80.7L31,80.7z M31,100.3c-5.3,0-9.6-3.3-9.6-7.3c0-4,4.3-7.3,9.6-7.3c5.3,0,9.7,3.3,9.7,7.3
	C40.7,97,36.3,100.3,31,100.3L31,100.3z M31,100.3"/>
<path id="XMLID_14_" fill="#A32E46" d="M10.8,105.9c-6,0-10.8,4.1-10.8,9.2c0,5.1,4.9,9.2,10.8,9.2c6,0,10.8-4.1,10.8-9.2
	C21.6,110.1,16.8,105.9,10.8,105.9L10.8,105.9z M10.8,119.4c-3.2,0-5.9-1.9-5.9-4.2c0-2.3,2.7-4.2,5.9-4.2c3.2,0,5.9,1.9,5.9,4.2
	C16.7,117.4,14,119.4,10.8,119.4L10.8,119.4z M10.8,119.4"/>
</svg>
