<?xml version="1.0" encoding="utf-8"?>
<!-- Generator: Adobe Illustrator 18.1.0, SVG Export Plug-In . SVG Version: 6.00 Build 0)  -->
<svg version="1.1" id="Layer_1" xmlns="http://www.w3.org/2000/svg" xmlns:xlink="http://www.w3.org/1999/xlink" x="0px" y="0px"
	 viewBox="656.5 456.9 99 99.2" enable-background="new 656.5 456.9 99 99.2" xml:space="preserve">
<g>
	<g>
		<path fill="#352E40" d="M661.1,459.7c-0.8,1.8-0.4,3.2,0.8,4.4l8.3,8.5c-4.4,4.6-7.6,9.9-10.1,15.7c-2.4,5.8-3.6,12.1-3.6,18.3
			c0,6.6,1.4,13.1,4,19.1s6.2,11.3,10.7,15.7c4.4,4.4,9.7,7.9,15.7,10.7c6,2.6,12.5,4,19.1,4s13.1-1.4,19.1-4
			c6-2.6,11.3-6.2,15.7-10.7c4.4-4.4,7.9-9.7,10.7-15.7c2.6-6,4-12.5,4-19.1c0-7.4-1.6-14.5-4.6-21.1c-3-6.6-7.4-12.3-13.1-17.1
			c-0.4-0.4-1-0.6-1.4-0.4c-0.4,0.2-1,0.2-1.4,0.6l-8.9,8.9c-0.4,0.4-0.6,1-0.6,1.6c0,0.6,0.4,1.2,0.8,1.4c4,3.2,7.2,7,9.5,11.5
			c2.2,4.6,3.4,9.5,3.4,14.5c0,4.4-0.8,8.7-2.6,12.9c-1.8,4-4,7.6-7,10.5c-3,3-6.4,5.2-10.5,7c-4,1.8-8.3,2.6-12.9,2.6
			c-4.6,0-8.7-0.8-12.9-2.6c-4-1.8-7.6-4-10.5-7c-3-3-5.2-6.4-7-10.5c-1.8-4-2.6-8.3-2.6-12.9c0-8.7,3-16.1,8.9-22.5l8.9,8.9
			c1.2,1.4,2.8,1.6,4.4,0.8c1.8-0.8,2.6-2,2.6-3.8v-28.8c0-1.2-0.4-2-1.2-2.8c-0.8-0.8-1.8-1.2-2.8-1.2h-28.8
			C663.1,457.1,661.9,457.9,661.1,459.7z"/>
	</g>
</g>
</svg>
