<?xml version="1.0" encoding="utf-8"?>
<!-- Generator: Adobe Illustrator 18.1.0, SVG Export Plug-In . SVG Version: 6.00 Build 0)  -->
<svg version="1.1" id="Layer_1" xmlns="http://www.w3.org/2000/svg" xmlns:xlink="http://www.w3.org/1999/xlink" x="0px" y="0px"
	 viewBox="0 0 212.5 205.4" enable-background="new 0 0 212.5 205.4" xml:space="preserve">
<path fill="#C27D8D" d="M206.7,25.8l-65.4-20c-1.5-0.5-3.2-0.5-4.8,0L73.9,24.9L11.2,0.6c-2.5-1-5.4-0.7-7.6,0.9C1.3,3,0,5.5,0,8.2
	v183.6c0,2.4,1.1,4.7,2.9,6.3c1.9,1.5,4.3,2.2,6.7,1.8l63.6-10.8l63.7,16c0.7,0.2,1.3,0.3,2,0.3c0.7,0,1.3-0.1,2-0.3l65.3-16.4
	c3.6-0.9,6.2-4.2,6.2-8V33.6C212.5,30,210.1,26.8,206.7,25.8L206.7,25.8z M81.8,57.1c0.1,0,0.1,0,0.1,0c0.8,0.7,1.8,1.1,2.8,1.1
	c1.1,0,2.2-0.5,3.1-1.3c1.5-1.7,1.4-4.3-0.3-5.8c-1.7-1.6-3.7-2.5-5.6-3.6v-7.8l47.8-14.6v86.8c-0.6,0.1-1.2,0-1.7,0.4
	c-4,2.9-7.5,4.3-10.3,4.3c-1.5,0-6.2,0-10.2-10.2c-0.8-2.1-3.3-3.2-5.3-2.3c-2.1,0.8-3.2,3.2-2.3,5.3c5,12.8,12.5,15.5,17.8,15.5
	c3.7,0,7.8-1.6,12-4.1v65.6l-47.8-12V57.1z M16.5,159.3c3.2-1.1,6.7-3.1,10.1-7.4c1.4-1.8,1.1-4.4-0.7-5.8c-1.8-1.4-4.4-1.1-5.8,0.7
	c-1.3,1.6-2.5,2.7-3.7,3.5V20.3l48.9,19v4.9c-5,0.6-9.9,2.1-14.4,5.3c-1.9,1.3-2.3,3.9-0.9,5.8c1.4,1.8,3.9,2.3,5.8,0.9
	c3-2.2,6.3-3.3,9.5-3.8v121.5L16.5,182V159.3z M196,174.4l-49.9,12.5V107c6.1-6,12.4-5,17.8,2.5c1.3,1.8,3.9,2.2,5.8,1
	c1.8-1.3,2.3-3.9,0.9-5.8c-6.8-9.4-16.1-12.2-24.5-7.9V24.4L196,39.7V174.4z M196,174.4"/>
<rect id="XMLID_11_" x="0" y="0" fill="none" width="218.2" height="210.5"/>
<path fill="#C27D8D" d="M168.3,138c-1.8-1.4-4.4-1.1-5.8,0.7c-1.4,1.8-1.1,4.4,0.7,5.8l8.3,6.4l-8.5,8.1c-1.7,1.6-1.7,4.2-0.2,5.8
	c0.8,0.9,1.9,1.3,3,1.3c1,0,2-0.4,2.8-1.1l9.4-9l9,7.1c0.8,0.6,1.6,0.9,2.5,0.9c1.2,0,2.4-0.5,3.3-1.6c1.4-1.8,1.1-4.4-0.7-5.8
	l-8.1-6.3l7.7-7.3c1.7-1.6,1.7-4.2,0.2-5.9c-1.5-1.6-4.2-1.7-5.8-0.1l-8.6,8.2L168.3,138z M168.3,138"/>
<path fill="#C27D8D" d="M101.2,100.5c2.2-0.5,3.7-2.7,3.2-4.9c-0.6-2.7-1-5.7-1.4-8.9c-1.2-9.8-3.7-18.3-7.5-25.1
	c-1.1-2-3.6-2.7-5.6-1.6c-2,1.1-2.7,3.6-1.6,5.6c3.2,6,5.4,13.4,6.6,22.2c0.4,3.5,0.9,6.7,1.5,9.6c0.4,1.9,2.1,3.3,4.1,3.3
	C100.7,100.5,101,100.5,101.2,100.5L101.2,100.5z M101.2,100.5"/>
<path fill="#C27D8D" d="M41.7,58.8c-6.4,8.7-10.5,20.5-11.7,33.9c-0.2,2.3,1.4,4.3,3.7,4.5c0.1,0,0.3,0,0.4,0c2.1,0,3.9-1.6,4.1-3.7
	c1.2-12,4.7-22.3,10.2-29.9c1.3-1.8,1-4.4-0.9-5.7C45.6,56.6,43,57,41.7,58.8L41.7,58.8z M41.7,58.8"/>
<path fill="#C27D8D" d="M33.6,101L33.6,101c-2.3,0-4.1,1.8-4.1,4.1c-0.2,13.5-1.7,24.3-4.5,32.3c-0.8,2.2,0.4,4.5,2.5,5.3
	c0.4,0.2,0.9,0.2,1.3,0.2c1.7,0,3.3-1.1,3.9-2.7c3.1-8.8,4.8-20.6,5-35C37.7,102.9,35.9,101,33.6,101L33.6,101z M33.6,101"/>
<path fill="#C27D8D" d="M169,119.6c1.6,4.8,2.5,10,2.5,14.9c0,2.3,1.8,4.1,4.1,4.1c2.3,0,4.1-1.8,4.1-4.1c0-5.8-1-11.8-2.9-17.5
	c-0.7-2.2-3-3.4-5.2-2.6C169.5,115.1,168.3,117.4,169,119.6L169,119.6z M169,119.6"/>
</svg>
